<svg width="100" height="111" viewBox="0 0 100 111" fill="none" xmlns="http://www.w3.org/2000/svg">
<path fill-rule="evenodd" clip-rule="evenodd" d="M25.5908 1.1058C39.1208 1.1058 50.0894 25.4802 50.0894 55.5504C50.0894 85.6207 39.1208 109.999 25.5908 109.999C12.0608 109.999 1.09216 85.6207 1.09216 55.5504C1.09216 25.4802 12.0608 1.1058 25.5908 1.1058Z" fill="white"/>
<mask id="mask0_9_266" style="mask-type:luminance" maskUnits="userSpaceOnUse" x="0" y="0" width="100" height="111">
<path d="M0 0H100V111H0V0Z" fill="white"/>
</mask>
<g mask="url(#mask0_9_266)">
<path d="M25.5907 1.1058C39.1207 1.1058 50.0892 25.4801 50.0892 55.5503C50.0892 85.6204 39.1207 109.999 25.5907 109.999C12.0607 109.999 1.09216 85.6204 1.09216 55.5503C1.09216 25.4801 12.0607 1.1058 25.5907 1.1058Z" stroke="#1A1A1A" stroke-width="2.92917" stroke-miterlimit="22.926"/>
</g>
<path fill-rule="evenodd" clip-rule="evenodd" d="M74.588 1.1058C88.118 1.1058 99.0866 25.4802 99.0866 55.5504C99.0866 85.6207 88.118 109.999 74.588 109.999C61.0579 109.999 50.0894 85.6207 50.0894 55.5504C50.0894 25.4802 61.0579 1.1058 74.588 1.1058Z" fill="white"/>
<mask id="mask1_9_266" style="mask-type:luminance" maskUnits="userSpaceOnUse" x="0" y="0" width="100" height="111">
<path d="M0 0H100V111H0V0Z" fill="white"/>
</mask>
<g mask="url(#mask1_9_266)">
<path d="M74.5878 1.1058C88.1177 1.1058 99.0863 25.4801 99.0863 55.5503C99.0863 85.6204 88.1177 109.999 74.5878 109.999C61.0578 109.999 50.0892 85.6204 50.0892 55.5503C50.0892 25.4801 61.0578 1.1058 74.5878 1.1058Z" stroke="#1A1A1A" stroke-width="2.92917" stroke-miterlimit="22.926"/>
</g>
<path fill-rule="evenodd" clip-rule="evenodd" d="M83.5976 30.4427C91.6317 30.4427 98.1499 45.2567 98.1499 63.5316C98.1499 81.8027 91.6317 96.6167 83.5976 96.6167C75.5558 96.6167 69.0415 81.8027 69.0415 63.5316C69.0415 45.2567 75.5558 30.4427 83.5976 30.4427Z" fill="#1A1A1A"/>
<path fill-rule="evenodd" clip-rule="evenodd" d="M35.3078 30.4427C42.7161 30.4427 48.7212 45.2567 48.7212 63.5316C48.7212 81.8027 42.7161 96.6167 35.3078 96.6167C27.8995 96.6167 21.8944 81.8027 21.8944 63.5316C21.8944 45.2567 27.8995 30.4427 35.3078 30.4427Z" fill="#1A1A1A"/>
</svg>
