<svg width="379" height="389" viewBox="0 0 379 389" fill="none" xmlns="http://www.w3.org/2000/svg">
<path fill-rule="evenodd" clip-rule="evenodd" d="M204.194 368.215C205.244 360.129 211.309 342.769 210.959 342.573C210.294 342.191 209.723 341.664 209.221 341.127C207.122 338.907 206.445 336.015 207.892 333.351C209.629 330.149 213.56 328.229 217.14 326.979C225.293 324.139 234.332 324.067 242.951 324.769C246.835 325.079 252.305 325.43 255.221 328.063C257.472 330.087 257.297 333.196 255.85 335.55C255.489 336.16 253.961 337.275 254.008 337.957C254.054 338.762 254.941 339.64 255.384 340.311C256.375 341.788 257.308 343.358 258.101 344.938C258.72 346.208 259.244 347.489 259.594 348.841C259.746 349.347 259.688 350.287 260.002 350.731C260.329 351.206 278.092 354.924 276.716 374.762C275.246 395.768 209.839 386.288 206.025 382.084C203.098 378.862 203.681 372.067 204.194 368.215Z" fill="#B4B4B4"/>
<path fill-rule="evenodd" clip-rule="evenodd" d="M209.618 343.069C209.116 342.697 208.673 342.273 208.253 341.84C205.839 339.289 205.092 335.943 206.749 332.876C208.615 329.426 212.825 327.289 216.674 325.957C225.013 323.055 234.25 322.951 243.068 323.674C245.47 323.871 248.468 324.087 251.127 324.8C253.051 325.327 254.801 326.111 256.119 327.289C258.766 329.664 258.65 333.32 256.958 336.087C256.748 336.439 256.224 336.934 255.734 337.451C255.571 337.616 255.361 337.895 255.279 338.008C255.326 338.205 255.477 338.401 255.617 338.607C255.909 339.02 256.235 339.423 256.469 339.754C257.495 341.282 258.44 342.872 259.244 344.494C259.898 345.826 260.446 347.179 260.831 348.583C260.912 348.883 260.936 349.286 260.994 349.688C260.994 349.771 260.994 349.864 261.006 349.936C261.355 350.06 261.939 350.277 262.51 350.504C267.409 352.415 279.118 358.208 277.964 374.835C277.649 379.43 274.57 382.735 269.753 384.976C265.228 387.072 259.093 388.239 252.398 388.725C238.601 389.726 222.342 387.826 213.035 385.73C210.154 385.09 207.915 384.408 206.585 383.788C205.851 383.448 205.337 383.096 205.057 382.787C203.763 381.351 203.04 379.286 202.736 377.055C202.305 373.936 202.643 370.466 202.946 368.091C203.879 360.914 208.731 346.477 209.618 343.069ZM205.431 368.339C205.139 370.58 204.812 373.854 205.221 376.787C205.466 378.584 205.967 380.257 207.017 381.403C207.203 381.62 207.67 381.816 208.288 382.064C209.536 382.549 211.379 383.086 213.653 383.592C222.762 385.658 238.682 387.506 252.2 386.525C258.521 386.071 264.306 385.007 268.587 383.024C272.575 381.165 275.2 378.501 275.468 374.711C276.657 357.681 263.082 353.086 260.119 352.022C259.723 351.878 259.454 351.764 259.349 351.692C259.128 351.568 259.011 351.423 258.941 351.33C258.731 351.041 258.603 350.638 258.533 350.184C258.475 349.812 258.463 349.389 258.393 349.11C258.043 347.829 257.553 346.6 256.958 345.392C256.189 343.853 255.291 342.335 254.323 340.879C254.043 340.476 253.611 339.991 253.296 339.485C252.993 339 252.783 338.494 252.76 338.019C252.736 337.626 252.9 337.131 253.273 336.635C253.716 336.067 254.497 335.427 254.742 335.024C255.932 333.082 256.177 330.511 254.323 328.838C253.005 327.661 251.127 327.031 249.156 326.628C246.986 326.184 244.712 326.029 242.823 325.874C234.39 325.182 225.561 325.223 217.572 328.001C214.283 329.158 210.597 330.872 209 333.816C207.775 336.077 208.381 338.525 210.154 340.394C210.586 340.859 211.052 341.292 211.612 341.633C211.799 341.736 211.997 341.912 212.125 342.201C212.16 342.304 212.23 342.707 212.079 343.347C211.367 346.373 206.375 361.1 205.431 368.339Z" fill="black"/>
<path fill-rule="evenodd" clip-rule="evenodd" d="M206.107 337.657C205.979 337.471 205.909 337.234 205.932 336.996C205.979 336.377 206.574 335.922 207.273 335.963C207.483 335.984 207.752 336.036 207.997 336.232C208.067 336.284 208.3 336.5 208.498 336.934C208.836 337.667 209.839 339.836 212.848 341.747C216.032 343.75 221.328 345.423 230.145 345.062C230.833 345.041 231.416 345.506 231.451 346.115C231.474 346.724 230.95 347.251 230.261 347.272C220.639 347.674 214.878 345.733 211.402 343.554C207.775 341.261 206.574 338.648 206.189 337.76C206.142 337.729 206.13 337.688 206.107 337.657Z" fill="black"/>
<path fill-rule="evenodd" clip-rule="evenodd" d="M255.699 331.915C255.815 331.306 256.457 330.903 257.145 331.006C257.821 331.099 258.276 331.678 258.171 332.277C257.623 335.158 255.862 337.42 253.646 339.154C250.462 341.654 246.333 343.048 243.732 343.657C243.068 343.812 242.379 343.461 242.205 342.872C242.041 342.273 242.438 341.674 243.103 341.519C245.05 341.065 247.966 340.125 250.532 338.525C252.981 336.996 255.139 334.858 255.699 331.915Z" fill="black"/>
<path fill-rule="evenodd" clip-rule="evenodd" d="M216.499 367.843C216.452 367.905 216.417 367.967 216.371 368.029C215.939 368.504 215.146 368.587 214.609 368.205C214.411 368.071 213.886 367.657 214.236 366.914C214.26 366.852 214.481 366.532 214.913 366.026C218.155 362.37 236.058 344.773 260.481 349.761C261.157 349.895 261.577 350.504 261.414 351.093C261.262 351.692 260.597 352.064 259.909 351.919C236.828 347.199 219.94 363.929 216.884 367.379C216.709 367.575 216.557 367.771 216.499 367.843ZM216.627 367.234C216.592 366.862 216.382 366.625 216.161 366.46C216.441 366.666 216.604 366.945 216.627 367.234Z" fill="black"/>
<path fill-rule="evenodd" clip-rule="evenodd" d="M219.928 222.148C219.811 218.616 223.357 215.673 227.859 215.58C232.349 215.477 236.105 218.265 236.233 221.797L240.14 333.123C240.257 336.655 236.711 339.599 232.209 339.702C227.719 339.795 223.963 337.006 223.835 333.475L219.928 222.148Z" fill="white"/>
<path fill-rule="evenodd" clip-rule="evenodd" d="M218.68 222.19C218.54 218.079 222.599 214.589 227.824 214.475C233.049 214.351 237.341 217.666 237.481 221.766L241.388 333.092C241.528 337.203 237.469 340.683 232.244 340.807C227.019 340.92 222.727 337.616 222.587 333.516L218.68 222.19ZM221.187 222.117L225.106 333.464C225.211 336.418 228.419 338.679 232.197 338.597C235.965 338.525 239.009 336.129 238.915 333.175L234.997 221.839C234.892 218.875 231.673 216.603 227.894 216.696C224.127 216.778 221.071 219.164 221.187 222.117Z" fill="black"/>
<path fill-rule="evenodd" clip-rule="evenodd" d="M170.698 298.084C170.488 298.053 170.861 297.733 170.931 297.547C171.048 297.206 171.141 296.855 171.211 296.504C171.421 295.492 171.444 294.428 171.363 293.416C171.118 290.256 169.555 286.868 165.893 285.805C161.286 284.462 155.944 286.373 152.165 288.634C143.686 293.705 135.918 304.125 136.56 313.388C136.828 317.406 141.948 319.12 141.948 319.12C141.948 319.12 145.715 326.896 140.7 328.28C135.557 329.705 128.174 338.452 126.669 341.458C122.004 350.804 118.96 364.301 132.291 369.021C138.951 371.375 147.092 369.485 153.681 367.916C160.434 366.305 167.397 364.415 173.427 361.213C183.259 355.998 190.7 347.189 195.855 338.297C199.284 332.401 203.518 324.201 201.512 317.292C201.337 316.642 200.077 316.094 199.541 315.722C197.791 314.504 196.053 313.254 194.281 312.036C187.539 307.419 177.917 302.122 170.698 298.084Z" fill="#B4B4B4"/>
<path fill-rule="evenodd" clip-rule="evenodd" d="M172.202 297.619C179.352 301.605 188.531 306.696 195.05 311.168C196.823 312.387 198.561 313.636 200.31 314.865C200.707 315.144 201.488 315.516 201.978 315.96C202.352 316.29 202.608 316.662 202.725 317.034C204.789 324.191 200.509 332.7 196.963 338.814C191.703 347.891 184.099 356.855 174.068 362.174C167.934 365.427 160.854 367.358 153.996 368.99C147.162 370.621 138.717 372.501 131.813 370.064C124.605 367.502 121.818 362.587 121.468 357.041C121.129 351.754 123.1 345.847 125.515 341.013C126.448 339.144 129.55 335.127 133.061 331.915C135.487 329.685 138.099 327.846 140.315 327.237C141.738 326.845 142.053 325.678 142.041 324.469C142.041 322.693 141.307 320.772 140.968 319.956C140.234 319.657 138.869 318.986 137.679 317.932C136.455 316.848 135.428 315.361 135.3 313.461C134.624 303.836 142.636 292.992 151.442 287.726C155.524 285.278 161.309 283.326 166.266 284.762C170.429 285.97 172.331 289.75 172.599 293.343C172.68 294.448 172.669 295.605 172.436 296.71C172.377 297.01 172.307 297.319 172.202 297.619ZM171.421 297.175C171.281 297.082 171.106 297.01 170.873 296.989C171.048 297.01 171.223 297.061 171.363 297.144C171.374 297.144 171.398 297.165 171.421 297.175ZM200.31 317.623C200.264 317.581 200.054 317.395 199.914 317.302C199.494 317.034 199.051 316.796 198.771 316.6C197.021 315.371 195.295 314.122 193.523 312.924C186.84 308.338 177.346 303.092 170.161 299.085C169.94 299.003 169.776 298.879 169.671 298.755C169.508 298.579 169.403 298.373 169.391 298.125C169.38 297.97 169.391 297.774 169.473 297.567C169.52 297.464 169.706 297.216 169.776 297.123C169.858 296.855 169.94 296.576 169.986 296.297C170.173 295.388 170.185 294.428 170.115 293.498C169.916 290.762 168.668 287.777 165.496 286.868C161.239 285.629 156.352 287.467 152.853 289.564C144.712 294.428 137.19 304.414 137.796 313.326C137.913 314.979 139.056 316.135 140.129 316.9C141.283 317.715 142.38 318.087 142.38 318.087C142.695 318.201 142.951 318.418 143.079 318.697C143.079 318.697 144.549 321.722 144.549 324.459C144.549 326.648 143.651 328.621 141.05 329.344C139.149 329.87 136.945 331.523 134.857 333.444C131.591 336.439 128.664 340.177 127.801 341.912C125.538 346.425 123.649 351.95 123.964 356.907C124.255 361.626 126.611 365.819 132.746 367.988C139.161 370.27 146.998 368.36 153.331 366.842C159.979 365.261 166.826 363.413 172.762 360.263C182.408 355.151 189.662 346.507 194.735 337.791C198.048 332.132 202.212 324.273 200.31 317.623Z" fill="black"/>
<path fill-rule="evenodd" clip-rule="evenodd" d="M137.05 331.605C136.735 331.864 136.268 331.977 135.813 331.853C135.16 331.667 134.787 331.037 134.997 330.469C135.02 330.366 135.09 330.222 135.254 330.056C135.312 329.994 135.545 329.808 135.977 329.581C138.636 328.125 152.352 321.826 166.021 324.707C166.697 324.851 167.117 325.44 166.954 326.039C166.791 326.628 166.114 326.999 165.449 326.855C152.632 324.159 139.79 330.087 137.283 331.45C137.201 331.512 137.096 331.574 137.05 331.605Z" fill="black"/>
<path fill-rule="evenodd" clip-rule="evenodd" d="M169.951 292.218C169.928 291.608 170.453 291.092 171.141 291.061C171.829 291.03 172.424 291.505 172.447 292.114C172.774 298.177 169.695 304.239 165.321 307.998C164.831 308.421 164.038 308.411 163.56 307.977C163.082 307.533 163.093 306.841 163.583 306.418C167.479 303.051 170.243 297.629 169.951 292.218Z" fill="black"/>
<path fill-rule="evenodd" clip-rule="evenodd" d="M135.288 312.8C135.184 312.201 135.638 311.633 136.338 311.54C137.015 311.447 137.656 311.85 137.761 312.459C138.099 314.369 138.776 315.609 139.569 316.414C140.747 317.612 142.17 317.85 142.939 318.087C147.057 319.357 152.387 317.168 155.524 314.834C156.049 314.442 156.842 314.504 157.285 314.968C157.728 315.433 157.658 316.135 157.134 316.538C153.413 319.316 146.998 321.691 142.123 320.184C141.085 319.874 139.242 319.461 137.679 317.881C136.653 316.817 135.72 315.258 135.288 312.8Z" fill="black"/>
<path fill-rule="evenodd" clip-rule="evenodd" d="M123.882 265.791C125.212 267.474 127.766 269.891 130.67 272.689C141.295 282.923 157.32 296.245 157.32 296.245C160.598 298.982 160.761 303.557 157.67 306.459C154.591 309.361 149.424 309.505 146.135 306.769C146.135 306.769 129.62 293.034 118.657 282.469C113.129 277.14 109.023 272.338 107.938 269.953C107.32 268.61 106.982 266.927 107.25 264.923C107.519 262.909 108.568 260.111 110.481 256.93C118.225 243.97 141.563 220.372 141.563 220.372C144.537 217.377 149.693 217.088 153.075 219.722C156.457 222.355 156.784 226.92 153.81 229.914C153.81 229.914 137.015 246.799 127.964 259.15C126.32 261.36 124.64 264.376 123.882 265.791Z" fill="white"/>
<path fill-rule="evenodd" clip-rule="evenodd" d="M125.328 265.667C126.716 267.288 129.014 269.467 131.591 271.935C142.205 282.149 158.172 295.429 158.172 295.429C161.95 298.579 162.137 303.856 158.58 307.202C155.034 310.559 149.074 310.724 145.284 307.574C145.284 307.574 128.746 293.798 117.747 283.212C112.079 277.749 107.903 272.813 106.784 270.376C106.107 268.878 105.722 267.02 106.014 264.799C106.282 262.682 107.379 259.76 109.373 256.424C117.164 243.391 140.63 219.649 140.63 219.649C144.059 216.2 150.007 215.869 153.903 218.895C157.798 221.931 158.183 227.198 154.754 230.647C154.754 230.647 138.029 247.46 129.014 259.76C127.603 261.639 126.168 264.138 125.328 265.667ZM122.739 265.305C123.52 263.859 125.235 260.792 126.891 258.531C135.988 246.128 152.865 229.171 152.865 229.171C155.372 226.63 155.104 222.768 152.235 220.537C149.378 218.307 145.016 218.565 142.496 221.085C142.298 221.291 119.24 244.599 111.577 257.436C109.758 260.462 108.743 263.116 108.487 265.037C108.253 266.823 108.545 268.321 109.093 269.519C110.166 271.842 114.19 276.5 119.59 281.694C130.507 292.218 146.952 305.901 146.998 305.942C149.786 308.256 154.148 308.142 156.772 305.674C159.373 303.216 159.245 299.354 156.469 297.03C156.469 297.03 140.42 283.677 129.76 273.422C126.798 270.582 124.209 268.114 122.867 266.4C122.587 266.09 122.552 265.667 122.739 265.305Z" fill="black"/>
<path fill-rule="evenodd" clip-rule="evenodd" d="M15.2981 68.9561C15.2164 68.8322 15.2164 69.2246 15.2048 69.3589C15.1581 69.6274 15.1348 69.8856 15.1581 70.1644C15.2164 70.908 15.3564 71.6825 15.6713 72.3744C16.6743 74.6154 18.8087 76.4226 21.3862 77.1559C23.9521 77.8788 26.8913 77.9097 29.5621 77.7858C35.1021 77.5276 40.5955 76.4123 45.6806 74.4502C48.9813 73.1799 52.5268 71.3211 54.3696 68.4501C55.326 66.9424 55.5476 65.1351 55.0461 63.4621C54.7545 62.512 53.7515 61.5929 54.1364 60.5809C54.8478 58.5774 56.1891 56.7185 57.1338 54.7873C59.2098 50.5636 60.8077 46.0506 61.6591 41.5067C62.1256 39.0179 62.4289 36.2812 61.6708 33.8233C61.0876 31.9541 59.3031 29.9506 56.8889 30.9111C55.6992 31.3964 54.7895 32.2329 54.0431 33.1624C53.9381 33.2863 52.9117 34.6598 52.8767 34.6082C52.4919 34.1848 52.7834 32.7906 52.7601 32.2949C52.6901 30.1469 52.4919 27.9782 52.2469 25.8405C51.5005 19.4893 49.7977 10.7319 43.9311 6.32222C42.4032 5.17591 40.5371 4.27745 38.4728 4.37039C37.7963 4.4117 36.4667 5.05198 35.8835 4.93839C35.4287 4.84544 34.6239 2.90395 34.2974 2.5425C32.4196 0.435765 29.4921 0.910811 27.3228 2.44955C25.6316 3.65782 24.5236 5.40311 23.9988 7.26199C23.9172 7.55114 23.7539 9.63722 23.439 9.73017C23.1824 9.80246 21.7945 8.76974 21.5495 8.64582C20.115 7.93325 18.6104 7.47885 17.0009 7.97456C14.5167 8.73876 13.2337 11.0727 12.7905 13.2207C12.7089 13.6441 12.8605 15.4927 12.5339 15.7715C12.324 15.9471 11.0877 15.2035 10.8428 15.1312C9.68812 14.7904 8.17191 14.7904 7.07557 15.2965C4.82458 16.3292 0.894106 19.1898 1.27899 25.8095C1.88548 35.8991 6.91229 55.438 10.8078 64.9699C12.184 68.3675 15.1348 67.9854 15.2981 68.9561Z" fill="white"/>
<path fill-rule="evenodd" clip-rule="evenodd" d="M53.9614 31.479C53.868 29.5581 53.6814 27.6373 53.4598 25.7164C52.6901 19.1277 50.8123 10.0502 44.7241 5.47529C42.9513 4.15342 40.7703 3.16202 38.3911 3.26529C37.9712 3.28594 37.3297 3.47183 36.7116 3.66805C36.6183 3.6887 36.5133 3.73001 36.3967 3.75066C36.28 3.58543 36.1517 3.36856 36.0584 3.193C35.7435 2.61468 35.4286 2.04669 35.2653 1.85047C32.9094 -0.793266 29.2355 -0.349201 26.5296 1.58197C24.6169 2.93482 23.3573 4.89697 22.7858 6.98305C22.7508 7.07599 22.6808 7.49941 22.5992 7.93314C22.3892 7.79889 22.2143 7.68529 22.156 7.66464C20.3948 6.78683 18.5637 6.31179 16.581 6.92109C13.6768 7.81954 12.079 10.4943 11.5542 13.0141C11.5192 13.2103 11.5075 13.675 11.4958 14.181C11.3792 14.1294 11.2859 14.0881 11.2276 14.0674C9.76969 13.644 7.85694 13.675 6.49235 14.305C4.0081 15.4513 -0.412234 18.5701 0.0309668 25.861C0.63745 36.0332 5.68759 55.727 9.61807 65.3416C10.4578 67.3966 11.7758 68.2951 12.9071 68.8424C13.257 69.0077 13.6652 69.1936 13.9568 69.3175C13.9101 69.617 13.8868 69.9268 13.9218 70.2366C13.9918 71.1041 14.155 71.9819 14.5166 72.7874C15.6596 75.3175 18.0855 77.3623 21.013 78.1988C23.7305 78.963 26.8212 79.025 29.6437 78.8907C35.3236 78.6325 40.9686 77.4862 46.182 75.4724C49.7276 74.0989 53.4948 72.0748 55.4659 68.9973C56.5856 67.2417 56.8538 65.1247 56.2473 63.1832C56.119 62.7288 55.8508 62.2951 55.6175 61.851C55.4426 61.5515 55.1976 61.2623 55.3143 60.9319C56.0257 58.9594 57.3437 57.1212 58.2767 55.2416C60.3877 50.9352 62.0206 46.3293 62.8953 41.6925C63.3852 39.0591 63.6884 36.1468 62.872 33.5341C62.1022 31.0452 59.548 28.639 56.364 29.9196C55.4426 30.281 54.6495 30.8387 53.9614 31.479ZM14.5049 69.8029C14.4116 69.7409 14.3067 69.648 14.225 69.524C14.295 69.6273 14.3883 69.7306 14.5049 69.8029ZM16.4643 69.3795C16.546 69.1936 16.581 68.987 16.546 68.7805C16.441 68.1815 15.9628 67.6961 15.0648 67.3037C14.225 66.9629 12.7671 66.5395 11.974 64.5877C8.11353 55.128 3.1217 35.7544 2.53854 25.7474C2.17698 19.8093 5.62928 17.1966 7.647 16.2774C8.44009 15.916 9.53643 15.9367 10.3878 16.1638C10.5511 16.2465 11.5658 16.7628 11.9857 16.8454C12.6505 17.0003 13.1287 16.7938 13.4086 16.5563C13.5835 16.4014 13.8168 16.0916 13.9101 15.6372C14.0501 15.0072 13.9684 13.7576 14.0384 13.4168C14.4 11.6406 15.368 9.64744 17.4207 9.01749C18.6803 8.63539 19.835 9.04847 20.9547 9.60613C21.1646 9.69908 22.0976 10.391 22.5875 10.6285C23.1357 10.8867 23.6138 10.8454 23.8354 10.7731C24.1037 10.6905 24.5935 10.422 24.8151 9.7817C25.0251 9.1724 25.165 7.75758 25.235 7.50973C25.6782 5.88838 26.6346 4.35996 28.1158 3.3066C29.7253 2.14996 31.918 1.64393 33.3176 3.21365C33.5742 3.50281 34.1223 4.77305 34.5539 5.32038C34.9038 5.7438 35.312 5.95034 35.5919 6.00197C35.9301 6.07426 36.385 6.05361 36.9098 5.92968C37.458 5.79543 38.1345 5.47529 38.5543 5.46496C40.2688 5.39267 41.82 6.20852 43.103 7.16894C48.7363 11.4031 50.2758 19.8506 50.9873 25.954C51.2322 28.071 51.4305 30.2087 51.5004 32.3361C51.5121 32.6872 51.3838 33.4927 51.4305 34.102C51.4654 34.6081 51.6404 35.0315 51.8737 35.2897C52.0719 35.5169 52.9233 36.1468 53.7981 35.3619C54.0197 35.1657 54.9527 33.9265 55.0577 33.8129C55.6758 33.0383 56.4106 32.3155 57.4136 31.923C58.2651 31.5822 58.9765 31.9127 59.4897 32.4394C59.9562 32.9041 60.2828 33.5134 60.4694 34.102C61.1925 36.4153 60.8659 38.9868 60.4344 41.3104C59.5947 45.7717 58.0318 50.202 55.9907 54.3432C55.0227 56.295 53.6814 58.1952 52.9467 60.24C52.7134 60.8802 52.795 61.5102 53.04 62.1195C53.2732 62.6668 53.6814 63.1935 53.8447 63.7409C54.2763 65.1247 54.0896 66.6324 53.2849 67.8923C51.5821 70.5567 48.2581 72.2401 45.1907 73.4174C40.2455 75.3279 34.8921 76.4122 29.5154 76.6704C26.9845 76.784 24.2087 76.7633 21.7827 76.0817C19.5434 75.4518 17.7123 73.8924 16.8492 71.9509C16.581 71.3623 16.476 70.7013 16.4177 70.0817C16.3944 69.8752 16.4177 69.6893 16.4527 69.5034C16.441 69.4827 16.4527 69.4311 16.4643 69.3795Z" fill="black"/>
<path fill-rule="evenodd" clip-rule="evenodd" d="M49.5177 39.5237C49.2262 39.4205 48.9696 39.3378 48.8063 39.3069C47.4184 39.0384 45.8672 38.9557 44.4676 39.1623C37.9946 40.0711 33.4926 45.5238 33.4459 51.1727C33.4459 51.782 33.9941 52.2777 34.6822 52.288C35.3703 52.288 35.9418 51.8027 35.9418 51.1934C35.9768 46.5875 39.5691 42.0952 44.8525 41.3516C45.9488 41.1967 47.1618 41.2587 48.2465 41.4652C48.2465 41.4652 49.3545 41.8783 49.821 41.93C50.2525 41.9816 50.6141 41.899 50.859 41.7854C51.0339 41.7028 51.2322 41.5582 51.4072 41.3207C51.5355 41.1657 51.6754 40.8869 51.8037 40.5151C52.3169 39.1623 53.0167 35.9299 54.7545 34.164C55.2093 33.7096 55.151 33.0073 54.6262 32.6046C54.113 32.2018 53.3199 32.2534 52.8651 32.7078C51.7221 33.8748 50.9173 35.5581 50.3458 37.0865C50.0542 37.9334 49.716 38.9144 49.5177 39.5237Z" fill="black"/>
<path fill-rule="evenodd" clip-rule="evenodd" d="M48.9929 41.3C49.5411 41.6718 50.3225 41.5891 50.754 41.1038C51.1739 40.6184 51.0806 39.9265 50.5324 39.5444C50.2875 39.3688 36.0235 31.0452 12.9538 44.1089C12.3823 44.4394 12.2074 45.121 12.5806 45.6374C12.9538 46.1537 13.7352 46.2983 14.3067 45.9678C35.6503 33.8954 48.7713 41.1451 48.9929 41.3Z" fill="black"/>
<path fill-rule="evenodd" clip-rule="evenodd" d="M36.7699 5.04152C36.9215 4.63876 36.8165 4.17404 36.4316 3.87456C35.9301 3.45115 35.137 3.48213 34.6705 3.93652C34.4956 4.10175 34.2973 4.41156 34.2623 4.8453C34.239 5.33068 34.4489 6.26012 34.4722 6.47699C34.6472 8.35652 34.8571 10.2257 35.0321 12.1053C35.4403 16.2671 35.8718 20.4289 36.315 24.5907C36.6066 27.3584 36.8282 30.1467 37.388 32.8937C37.5163 33.4927 38.1578 33.8955 38.8459 33.7819C39.5224 33.6786 39.9656 33.1003 39.849 32.5013C39.3008 29.8163 39.0908 27.0899 38.7993 24.3739C38.3561 20.2224 37.9245 16.0605 37.528 11.909C37.353 10.0398 37.1431 8.17063 36.9682 6.30143C36.9448 6.14652 36.8165 5.26872 36.7699 5.04152Z" fill="black"/>
<path fill-rule="evenodd" clip-rule="evenodd" d="M24.7452 8.89358C24.7569 8.85227 24.7569 8.80064 24.7569 8.75933C24.7569 8.15003 24.1971 7.65433 23.5089 7.65433C23.1357 7.65433 22.4359 7.76792 22.261 8.57344C22.226 8.72835 22.3076 9.54419 22.3193 9.59582C22.4243 10.3394 22.5176 11.0829 22.6342 11.8265C22.9024 13.6647 23.2057 15.5133 23.4856 17.3515C24.0454 21.0692 24.6403 24.787 25.2817 28.4944C25.6316 30.5289 25.8882 32.615 26.4247 34.6081C26.588 35.2071 27.2761 35.5685 27.9409 35.4239C28.6057 35.2793 29.0256 34.6907 28.8623 34.0917C28.3375 32.1502 28.0925 30.1261 27.7543 28.1536C27.1245 24.4669 26.518 20.7594 25.9582 17.052C25.6899 15.2138 25.3984 13.3652 25.1068 11.527C25.0018 10.8041 24.8968 10.0605 24.8035 9.33765C24.7919 9.31699 24.7685 9.01751 24.7452 8.89358ZM24.407 9.52353C24.1504 9.77139 23.8238 9.86433 23.5089 9.86433C23.8588 9.86433 24.1737 9.73008 24.407 9.52353Z" fill="black"/>
<path fill-rule="evenodd" clip-rule="evenodd" d="M13.4436 15.0899C13.432 14.7594 13.257 14.4186 12.9304 14.212C12.4756 13.9229 12.0907 13.9849 11.8574 14.0365C11.4726 14.1294 11.1576 14.336 10.9944 14.7387C10.9594 14.842 10.9127 14.9763 10.9127 15.1518C10.9127 15.2344 10.9944 15.5029 11.0177 15.6062L11.0294 15.6475C11.0643 15.8334 11.1227 16.0193 11.1693 16.2155C11.2976 16.7215 11.4142 17.2482 11.5425 17.7542C11.9391 19.4479 12.4056 21.1209 12.8138 22.8042C13.6419 26.1295 14.47 29.4342 15.2747 32.7492C15.6829 34.4842 16.2311 36.2294 16.4644 37.9851C16.546 38.6047 17.1642 39.0281 17.8406 38.9558C18.5171 38.8835 19.0186 38.3362 18.937 37.7372C18.7037 35.899 18.1439 34.0917 17.7123 32.2845C16.9076 28.9695 16.0678 25.6442 15.2397 22.3292C14.8315 20.6458 14.365 18.9832 13.9685 17.2999C13.8402 16.7835 13.7235 16.2671 13.5952 15.7508C13.5486 15.5546 13.5019 15.3584 13.4553 15.1621C13.4669 15.1415 13.4553 15.1105 13.4436 15.0899ZM11.9507 16.1949C11.8108 16.1639 11.6475 16.1226 11.4726 16.009C11.6125 16.1019 11.7758 16.1639 11.9507 16.1949Z" fill="black"/>
<path fill-rule="evenodd" clip-rule="evenodd" d="M16.546 69.0386C17.0009 68.5532 18.5871 66.8802 19.5201 66.085C23.8238 62.4705 30.3085 61.0247 36.0351 60.4257C36.7233 60.3535 37.2131 59.8061 37.1315 59.1968C37.0498 58.5772 36.4317 58.1538 35.7319 58.2261C29.5038 58.8767 22.4709 60.5393 17.8056 64.474C16.6627 65.4344 15.0648 66.9731 14.435 67.7993C14.1201 68.2124 14.0035 68.5738 13.9918 68.7701C13.9685 69.1522 14.1084 69.431 14.295 69.6375C14.4583 69.8131 14.6799 69.9473 14.9832 70.0196C15.6596 70.1745 16.3361 69.8131 16.511 69.2244C16.5344 69.1625 16.546 69.1005 16.546 69.0386ZM16.0562 68.0678C15.9279 67.9852 15.7646 67.9232 15.613 67.8819C15.7879 67.9232 15.9395 67.9852 16.0562 68.0678Z" fill="black"/>
<path fill-rule="evenodd" clip-rule="evenodd" d="M44.106 57.7614C43.4063 57.7304 42.8231 58.1848 42.7764 58.7941C42.7298 59.4034 43.2546 59.93 43.9428 59.9714C46.9519 60.1366 50.824 60.1676 53.2383 61.9645C53.7631 62.3569 54.5562 62.295 54.9994 61.8199C55.4426 61.3449 55.3843 60.6529 54.8361 60.2502C52.037 58.1744 47.6167 57.9472 44.106 57.7614Z" fill="black"/>
<path fill-rule="evenodd" clip-rule="evenodd" d="M29.1073 72.7769C28.979 68.7907 32.5246 65.455 37.0149 65.3414C41.5168 65.2278 45.284 68.3569 45.4123 72.3432C45.4123 72.3432 47.3484 116.543 104.323 131.249C108.65 132.364 111.134 136.371 109.875 140.203C108.615 144.034 104.09 146.223 99.7626 145.108C30.5068 127.242 29.1073 72.7769 29.1073 72.7769Z" fill="white"/>
<path fill-rule="evenodd" clip-rule="evenodd" d="M27.8592 72.7977C27.8825 73.5619 29.702 128.182 99.4126 146.182C104.404 147.463 109.629 144.933 111.076 140.523C112.534 136.103 109.664 131.476 104.684 130.185C48.7945 115.769 46.6835 72.5292 46.6718 72.302C46.5085 67.7065 42.1699 64.092 36.9798 64.2262C31.8013 64.3708 27.7076 68.2125 27.8592 72.7977ZM30.3551 72.7461C30.2501 69.3794 33.2359 66.5498 37.0614 66.4569C40.8636 66.3536 44.0476 69.0077 44.1643 72.3846V72.395C44.1643 72.395 46.0653 117.37 103.973 132.334C107.635 133.273 109.734 136.671 108.673 139.903C107.612 143.156 103.775 145.015 100.112 144.065C31.8013 126.426 30.3551 72.7461 30.3551 72.7461Z" fill="black"/>
<path d="M311.6 156.695C311.6 160.062 311.414 163.428 311.04 166.774C310.667 170.131 310.107 173.456 309.373 176.761C308.626 180.065 307.705 183.329 306.597 186.551C305.5 189.783 304.217 192.943 302.76 196.062C301.302 199.171 299.68 202.217 297.884 205.181C296.088 208.155 294.14 211.047 292.029 213.845C289.907 216.644 287.644 219.35 285.23 221.952C282.816 224.555 280.273 227.043 277.579 229.429C274.885 231.815 272.074 234.076 269.135 236.214C266.184 238.352 263.14 240.355 259.979 242.224C256.807 244.093 253.553 245.828 250.194 247.408C246.835 248.999 243.406 250.434 239.884 251.725C236.373 253.016 232.792 254.152 229.153 255.133C225.515 256.104 221.829 256.92 218.097 257.581C214.365 258.242 210.609 258.737 206.819 259.068C203.028 259.388 199.237 259.553 195.435 259.553C191.633 259.553 187.831 259.388 184.052 259.068C180.262 258.737 176.506 258.242 172.774 257.581C169.042 256.92 165.356 256.104 161.717 255.133C158.067 254.152 154.498 253.016 150.975 251.725C147.465 250.434 144.024 248.999 140.677 247.408C137.318 245.828 134.052 244.093 130.891 242.224C127.731 240.355 124.675 238.352 121.736 236.214C118.797 234.076 115.986 231.815 113.292 229.429C110.598 227.043 108.043 224.555 105.629 221.952C103.215 219.35 100.952 216.644 98.8411 213.845C96.7301 211.047 94.7707 208.155 92.9862 205.181C91.1901 202.217 89.5689 199.171 88.111 196.062C86.6532 192.943 85.3702 189.783 84.2622 186.551C83.1659 183.329 82.2445 180.065 81.498 176.761C80.7516 173.456 80.1918 170.131 79.8186 166.774C79.457 163.428 79.2704 160.062 79.2704 156.695C79.2704 153.328 79.457 149.972 79.8186 146.616C80.1918 143.26 80.7516 139.934 81.498 136.63C82.2445 133.325 83.1659 130.062 84.2622 126.839C85.3702 123.617 86.6532 120.447 88.111 117.328C89.5689 114.22 91.1901 111.184 92.9862 108.209C94.7707 105.235 96.7301 102.354 98.8411 99.5449C100.952 96.7462 103.215 94.0509 105.629 91.4381C108.043 88.8357 110.598 86.3468 113.292 83.9613C115.974 81.5757 118.797 79.3244 121.736 77.1867C124.675 75.049 127.731 73.0455 130.891 71.166C134.052 69.2968 137.318 67.5722 140.677 65.9818C144.024 64.3914 147.465 62.9559 150.975 61.665C154.498 60.3742 158.067 59.2382 161.717 58.2674C165.356 57.2864 169.042 56.4705 172.774 55.8096C176.506 55.159 180.262 54.6633 184.052 54.3328C187.831 54.0023 191.633 53.8371 195.435 53.8371C199.237 53.8371 203.028 54.0023 206.819 54.3328C210.609 54.6633 214.365 55.159 218.097 55.8096C221.829 56.4705 225.515 57.2864 229.153 58.2674C232.792 59.2382 236.373 60.3742 239.884 61.665C243.406 62.9559 246.835 64.3914 250.194 65.9818C253.553 67.5722 256.807 69.2968 259.979 71.166C263.14 73.0455 266.184 75.049 269.135 77.1867C272.074 79.3244 274.885 81.5757 277.579 83.9613C280.273 86.3468 282.816 88.8357 285.23 91.4381C287.644 94.0509 289.907 96.7462 292.029 99.5449C294.14 102.354 296.088 105.235 297.884 108.209C299.68 111.184 301.302 114.22 302.76 117.328C304.217 120.447 305.5 123.617 306.597 126.839C307.705 130.062 308.626 133.325 309.373 136.63C310.107 139.934 310.667 143.26 311.04 146.616C311.414 149.972 311.6 153.328 311.6 156.695Z" fill="#B4B4B4"/>
<path fill-rule="evenodd" clip-rule="evenodd" d="M277.497 83.9098C283.002 88.7842 287.971 94.1336 292.286 99.8962C278.617 109.139 257.495 110.203 241.202 110.719C229.9 111.08 218.668 111.328 207.367 110.512C187.341 109.067 167.654 105.659 147.628 104.265C138.379 103.624 128.594 104.006 119.357 104.523C114.341 104.802 109.175 106.051 104.136 105.514C101.302 105.215 98.5029 104.626 95.7155 103.924C98.8645 99.2662 102.433 94.8565 106.341 90.7154C108.79 91.6448 111.239 92.3677 113.642 92.8324C125.06 95.0631 137.026 93.7928 148.561 95.0424C153.191 95.5484 156.807 98.3264 161.612 98.5743C174.36 99.2146 187.003 98.4607 199.762 98.2645C210.329 98.0992 220.803 98.8015 231.253 97.1182C247.103 94.557 262.673 89.9408 277.497 83.9098Z" fill="white"/>
<path fill-rule="evenodd" clip-rule="evenodd" d="M80.8099 139.914C81.568 135.824 82.5944 131.827 83.889 127.913C90.607 128.987 97.3016 130.165 104.055 131.487C110.224 132.695 116.266 134.76 122.494 135.628C129.69 136.64 137.05 137.631 144.292 138.282C149.739 138.767 155.186 138.334 160.621 139.149C182.769 142.495 205.034 147.948 227.754 147.07C243.231 146.471 257.67 142.97 272.26 138.643C278.302 136.846 283.924 134.213 289.895 132.282C295.505 130.485 301.325 129.308 307.215 128.605C308.731 133.325 309.862 138.189 310.609 143.156C308.311 143.931 306.037 144.664 303.821 145.366C292.228 149.043 280.646 151.573 268.4 153.267C261.087 154.268 252.456 153.576 245.062 153.576C241.341 153.576 237.703 154.557 233.982 154.661C223.485 154.929 213.175 152.853 202.736 152.358C193.966 151.945 184.892 153.514 176.04 153.39C170.511 153.308 165.286 151.769 159.816 151.449C150.334 150.881 140.642 151.501 131.206 150.22C124.022 149.249 117.257 145.945 110.248 144.427C100.836 142.382 90.642 141.607 80.8099 139.914Z" fill="white"/>
<path fill-rule="evenodd" clip-rule="evenodd" d="M84.4139 187.046C81.7897 179.549 80.1219 171.669 79.5154 163.542C87.353 164.317 95.4006 166.268 101.99 167.9C110.738 170.058 119.625 171.649 128.302 174.003C142.788 177.948 156.201 182.833 171.491 183.597C184.052 184.238 196.963 184.806 209.478 183.339C227.567 181.222 244.945 176.131 262.755 172.816C278.92 169.8 294.817 167.993 310.935 167.848C310.247 173.384 309.081 178.795 307.448 184.041C301.967 184.258 296.555 184.651 291.435 185.167C284.647 185.859 278.127 187.522 271.409 188.492C241.027 192.861 210.271 198.902 179.305 198.51C161.985 198.282 145.296 192.034 128.046 190.713C114.073 189.649 98.1764 190.713 84.4139 187.046Z" fill="white"/>
<path fill-rule="evenodd" clip-rule="evenodd" d="M125.97 239.126C119.66 234.944 113.852 230.224 108.627 225.019C112.965 224.265 117.316 223.594 121.841 223.987C135.382 225.143 148.095 229.037 161.286 231.618C174.465 234.21 188.857 235.697 202.34 235.357C216.756 234.985 231.544 230.844 245.225 227.167C256.644 224.09 268.225 222.138 279.772 219.608C282.851 218.926 285.976 218.193 289.137 217.48C284.938 222.551 280.215 227.271 275.06 231.577C270.079 231.825 265.111 232.176 260.142 233.054C252.468 234.386 245.225 237.928 237.679 239.808C222.972 243.474 207.25 245.725 191.96 245.756C179.282 245.787 167.759 239.446 155.512 237.68C148.888 236.72 142.205 237.804 135.58 238.207C132.466 238.383 129.247 238.692 125.97 239.126Z" fill="white"/>
<path fill-rule="evenodd" clip-rule="evenodd" d="M195.435 52.7217C260.236 52.7217 312.848 99.3073 312.848 156.695C312.848 214.073 260.236 260.668 195.435 260.668C130.635 260.668 78.0107 214.073 78.0107 156.695C78.0107 99.3073 130.635 52.7217 195.435 52.7217ZM195.435 54.9421C132.011 54.9421 80.5183 100.536 80.5183 156.695C80.5183 212.854 132.011 258.448 195.435 258.448C258.859 258.448 310.352 212.854 310.352 156.695C310.352 100.526 258.859 54.9421 195.435 54.9421Z" fill="black"/>
<path fill-rule="evenodd" clip-rule="evenodd" d="M291.715 99.1524C291.715 99.1524 294.654 102.767 298.269 108.839C300.252 112.165 303.576 119.063 303.576 119.063C303.576 119.063 352.445 114.385 350.59 125.094C348.747 135.803 272.33 165.835 199.692 185.012C127.066 204.179 -30.4331 214.723 80.5417 172C80.5417 172 79.3404 165.349 79.3288 160.175C79.3171 156.251 79.632 148.382 79.632 148.382C79.632 148.382 6.91229 173.373 16.2078 202.847C25.5033 232.31 126.448 228.086 207.507 208.857C288.554 189.618 388.612 148.785 376.774 119.042C364.959 89.3314 293.977 99.2144 291.715 99.1524Z" fill="#D9D9D9"/>
<path d="M86.9331 225.247C86.2566 225.247 85.6035 225.247 84.9503 225.236C56.1657 225.061 20.6748 221.085 15.0065 203.157C11.0527 190.589 20.9897 176.926 43.7445 163.645C60.6793 153.762 79.0021 147.422 79.1887 147.36C79.5853 147.225 80.0168 147.267 80.3667 147.484C80.705 147.7 80.9032 148.062 80.8916 148.423C80.8916 148.506 80.5767 156.313 80.5883 160.176C80.6 165.205 81.7663 171.763 81.778 171.825C81.8713 172.331 81.568 172.816 81.0432 173.022C44.6542 187.036 42.6831 193.274 43.5229 195.298C45.2023 199.367 61.6824 202.548 102.923 199.305C135.953 196.723 173.8 190.692 199.342 183.949C234.145 174.768 271.269 162.706 301.173 150.86C335.766 137.177 348.736 128.492 349.354 124.919C349.494 124.124 349.237 123.463 348.572 122.843C342.974 117.659 314.283 119.156 303.704 120.168C303.156 120.22 302.631 119.951 302.421 119.507C302.386 119.435 299.097 112.599 297.173 109.366C293.639 103.438 290.735 99.8445 290.7 99.8136C290.432 99.4728 290.385 99.008 290.607 98.6466C290.828 98.2748 291.248 98.0373 291.75 98.058C291.936 98.058 292.788 97.965 293.674 97.8824C340.863 93.2868 370.791 100.681 377.975 118.712C379.841 123.401 379.153 128.502 375.957 133.872C366.277 150.148 335.486 165.928 311.367 176.296C281.346 189.195 243.616 201.474 207.833 209.963C167.315 219.556 122.307 225.236 86.9331 225.247ZM78.3257 150.065C67.339 154.114 9.33818 176.905 17.4207 202.558C21.5145 215.508 45.5056 222.778 84.9737 223.016C120.406 223.243 166.114 217.543 207.203 207.804C276.028 191.477 357.775 159.649 373.741 132.819C376.611 128.027 377.229 123.525 375.608 119.435C368.855 102.468 339.86 95.5898 293.954 100.082H293.942C295.132 101.703 297.126 104.533 299.389 108.323C301.01 111.029 303.436 115.975 304.369 117.876C311.227 117.266 343.336 114.788 350.392 121.315C351.581 122.42 352.095 123.793 351.826 125.26C349.704 137.497 268.505 167.993 200.054 186.066C174.36 192.861 136.326 198.913 103.145 201.525C81.533 203.219 44.7358 204.758 41.1552 196.062C39.9189 193.067 42.4498 189.608 48.8646 185.477C55.1393 181.439 65.3329 176.689 79.1421 171.329C78.8155 169.356 78.0691 164.348 78.0574 160.186C78.0691 157.398 78.2324 152.616 78.3257 150.065Z" fill="black"/>
<path fill-rule="evenodd" clip-rule="evenodd" d="M174.08 88.66C175.107 81.9474 169.788 75.7511 162.195 74.8423C154.614 73.9232 147.616 78.6324 146.59 85.3553L138.391 138.643C137.365 145.356 142.683 151.552 150.276 152.461C157.868 153.37 164.855 148.671 165.881 141.948L174.08 88.66Z" fill="white"/>
<path fill-rule="evenodd" clip-rule="evenodd" d="M175.316 88.815L167.117 142.103C165.997 149.425 158.37 154.557 150.101 153.556C141.831 152.564 136.035 145.8 137.155 138.488L145.354 85.2005C146.473 77.8785 154.113 72.746 162.37 73.7477C170.639 74.7391 176.436 81.493 175.316 88.815ZM172.832 88.5258C173.777 82.4121 168.937 76.7735 162.032 75.937C155.139 75.1005 148.771 79.3863 147.826 85.4999L139.639 138.788C138.694 144.891 143.534 150.53 150.439 151.366C157.332 152.203 163.7 147.917 164.645 141.803L172.832 88.5258Z" fill="black"/>
<path fill-rule="evenodd" clip-rule="evenodd" d="M159.338 140.151C167.304 124.051 162.335 109.49 162.382 107.156C162.417 105.307 162.522 103.438 163.105 101.662C164.19 98.316 166.721 95.414 167.502 91.9958C167.969 89.9613 167.584 87.8546 166.744 85.9338C165.834 83.8374 164.271 81.9165 161.566 81.6893C155.279 81.1523 152.783 88.7944 151.768 92.8942C150.707 97.1077 150.591 101.538 151.057 105.813C151.489 109.872 152.492 114.23 151.78 118.289C151.197 121.614 148.876 124.382 147.383 127.407C145.167 131.858 144.176 138.272 147.01 142.733C147.371 143.28 147.803 143.807 148.363 144.21C152.515 147.246 157.74 143.363 159.338 140.151Z" fill="black"/>
<path fill-rule="evenodd" clip-rule="evenodd" d="M160.481 140.585C159.594 142.392 157.682 144.385 155.419 145.5C152.946 146.709 150.101 146.915 147.57 145.077C146.905 144.581 146.357 143.951 145.925 143.28C142.916 138.53 143.873 131.714 146.228 126.963C147.698 124.02 149.972 121.356 150.544 118.123C151.244 114.158 150.229 109.882 149.809 105.927C149.343 101.538 149.459 96.9837 150.532 92.667C151.185 90.0749 152.41 86.1609 154.696 83.5481C156.41 81.586 158.696 80.3364 161.682 80.5946C164.889 80.8631 166.814 83.0524 167.899 85.5413C168.832 87.6583 169.228 89.9819 168.715 92.2229C167.934 95.6618 165.391 98.5947 164.295 101.972C163.747 103.655 163.653 105.421 163.618 107.166C163.595 109.531 168.563 124.289 160.481 140.585ZM158.195 139.697C166.056 123.814 161.087 109.438 161.122 107.135C161.157 105.194 161.286 103.232 161.892 101.352C162.965 98.0371 165.496 95.1765 166.254 91.7788C166.674 89.951 166.336 88.0611 165.566 86.3261C164.82 84.6222 163.642 82.9801 161.437 82.7839C159.384 82.6187 157.857 83.5481 156.667 84.901C154.603 87.2556 153.553 90.8081 152.958 93.1317C151.932 97.2212 151.838 101.548 152.27 105.71C152.713 109.851 153.728 114.313 152.993 118.454C152.398 121.872 150.042 124.733 148.491 127.841C146.427 132.013 145.424 138.013 148.083 142.185C148.351 142.609 148.701 143.032 149.133 143.363C150.754 144.54 152.597 144.334 154.183 143.559C155.991 142.681 157.483 141.122 158.195 139.697Z" fill="black"/>
<path fill-rule="evenodd" clip-rule="evenodd" d="M225.328 93.3072C226.366 86.5946 221.048 80.3983 213.455 79.4895C205.874 78.5704 198.864 83.2796 197.838 90.0025L189.65 143.29C188.612 150.003 193.931 156.199 201.524 157.108C209.105 158.027 216.114 153.318 217.14 146.595L225.328 93.3072Z" fill="white"/>
<path fill-rule="evenodd" clip-rule="evenodd" d="M226.564 93.4622L218.377 146.75C217.245 154.072 209.629 159.205 201.349 158.203C193.079 157.211 187.283 150.457 188.414 143.136L196.602 89.8477C197.733 82.5258 205.349 77.3932 213.63 78.3949C221.887 79.3863 227.696 86.1402 226.564 93.4622ZM224.08 93.1627C225.025 87.0594 220.185 81.4208 213.28 80.5843C206.375 79.7478 200.007 84.0335 199.063 90.1472L190.875 143.435C189.93 149.538 194.771 155.177 201.675 156.013C208.58 156.85 214.948 152.564 215.893 146.451L224.08 93.1627Z" fill="black"/>
<path fill-rule="evenodd" clip-rule="evenodd" d="M210.586 144.798C218.563 128.698 213.595 114.137 213.63 111.803C213.665 109.955 213.781 108.085 214.365 106.309C215.449 102.963 217.98 100.061 218.762 96.643C219.228 94.6085 218.855 92.5018 218.015 90.5809C217.094 88.4845 215.531 86.5637 212.837 86.3365C206.539 85.7995 204.054 93.4416 203.028 97.5414C201.967 101.755 201.862 106.185 202.317 110.471C202.748 114.519 203.763 118.888 203.051 122.946C202.468 126.271 200.147 129.039 198.643 132.065C196.427 136.516 195.447 142.929 198.281 147.38C198.631 147.938 199.063 148.464 199.622 148.867C203.763 151.893 209 148.02 210.586 144.798Z" fill="black"/>
<path fill-rule="evenodd" clip-rule="evenodd" d="M211.74 145.232C210.842 147.039 208.93 149.032 206.667 150.148C204.206 151.356 201.349 151.562 198.829 149.724C198.153 149.229 197.605 148.599 197.185 147.927C194.164 143.177 195.132 136.361 197.488 131.611C198.946 128.667 201.232 126.003 201.803 122.77C202.503 118.805 201.488 114.529 201.057 110.574C200.59 106.185 200.707 101.631 201.803 97.3142C202.445 94.7221 203.681 90.8081 205.955 88.1953C207.67 86.2332 209.956 84.9836 212.942 85.2418C216.149 85.5103 218.085 87.6996 219.17 90.1885C220.091 92.3055 220.488 94.6188 219.975 96.8701C219.193 100.309 216.651 103.242 215.566 106.619C215.018 108.302 214.913 110.068 214.878 111.813C214.843 114.178 219.811 128.936 211.74 145.232ZM209.443 144.344C217.304 128.461 212.347 114.085 212.37 111.782C212.405 109.841 212.533 107.879 213.152 105.999C214.225 102.684 216.744 99.8237 217.514 96.426C217.934 94.5981 217.584 92.7083 216.826 90.9733C216.067 89.2693 214.889 87.617 212.685 87.4311C210.644 87.2659 209.105 88.1953 207.915 89.5482C205.862 91.9028 204.801 95.4553 204.218 97.7789C203.191 101.879 203.086 106.195 203.53 110.357C203.961 114.498 204.976 118.96 204.241 123.101C203.646 126.519 201.302 129.38 199.751 132.488C197.675 136.66 196.683 142.661 199.331 146.822C199.611 147.256 199.949 147.679 200.392 148.01C202.013 149.187 203.844 148.981 205.431 148.206C207.238 147.328 208.743 145.769 209.443 144.344Z" fill="black"/>
<path fill-rule="evenodd" clip-rule="evenodd" d="M180.6 151.686C180.67 151.614 180.845 151.408 180.903 151.304C181.428 150.54 181.673 149.549 181.44 148.681C180.938 146.698 178.57 145.263 176.308 145.583C174.185 145.893 172.389 147.525 172.354 149.466C172.342 150.137 172.657 150.984 173.182 151.645C173.614 152.161 174.162 152.595 174.885 152.513C175.573 152.43 176.203 152.853 176.296 153.452C176.389 154.051 175.911 154.619 175.235 154.702C173.859 154.867 172.657 154.392 171.736 153.556C170.523 152.461 169.823 150.726 169.846 149.435C169.916 146.43 172.622 143.889 175.9 143.414C179.422 142.898 183.096 145.129 183.877 148.196C184.25 149.6 183.877 151.201 183.049 152.44C182.851 152.729 182.536 153.163 182.151 153.432C181.871 153.649 181.545 153.783 181.206 153.834C180.53 153.938 179.877 153.535 179.76 152.926C179.667 152.378 180.028 151.862 180.6 151.686Z" fill="black"/>
<path fill-rule="evenodd" clip-rule="evenodd" d="M153.926 165.763C153.541 165.267 153.681 164.575 154.253 164.224C154.824 163.883 155.606 164.017 155.991 164.513C156.317 164.947 156.935 165.195 157.565 165.38C158.37 165.618 159.245 165.732 159.933 165.804C161.542 165.959 163.303 165.752 164.715 165.019C167.339 163.645 168.249 160.485 166.907 158.12C166.604 157.573 166.849 156.902 167.467 156.633C168.085 156.365 168.843 156.582 169.147 157.129C171.048 160.496 169.706 164.978 165.998 166.929C164.143 167.911 161.787 168.22 159.676 168.014C158.65 167.911 157.297 167.714 156.154 167.281C155.233 166.929 154.439 166.423 153.926 165.763Z" fill="black"/>
<path fill-rule="evenodd" clip-rule="evenodd" d="M185.207 161.156C185.382 160.919 185.661 160.754 185.988 160.692C186.653 160.557 187.318 160.94 187.469 161.528C187.598 162.076 186.618 162.953 186.618 162.953C186.618 162.953 186.816 162.809 186.874 162.726C186.676 162.984 186.548 163.274 186.431 163.563C185.965 164.74 185.72 166.031 185.79 167.28C185.825 167.89 185.941 168.478 186.221 169.026C187.714 171.928 191.925 171.577 194.234 169.645C194.747 169.232 195.54 169.253 196.007 169.707C196.473 170.151 196.45 170.854 195.937 171.267C192.461 174.148 186.163 174.303 183.947 169.934C183.539 169.139 183.341 168.282 183.294 167.404C183.201 165.866 183.48 164.275 184.064 162.829C184.262 162.354 184.495 161.879 184.81 161.456C184.892 161.373 185.067 161.249 185.207 161.156Z" fill="black"/>
<path fill-rule="evenodd" clip-rule="evenodd" d="M165.053 167.002C165.064 167.084 165.111 167.859 165.111 168.117C165.158 169.48 165.204 170.843 165.356 172.206C165.729 175.542 166.371 179.281 169.31 181.666C172.051 183.876 176.658 183.938 179.69 182.162C181.673 181.005 183.154 179.105 184.005 177.163C184.869 175.212 185.09 173.229 184.997 171.153C184.973 170.533 185.51 170.027 186.198 169.996C186.886 169.976 187.469 170.451 187.493 171.06C187.609 173.446 187.318 175.738 186.326 177.979C185.277 180.324 183.469 182.606 181.055 184.01C177.124 186.313 171.153 186.158 167.619 183.298C164.225 180.54 163.292 176.296 162.86 172.423C162.697 171.019 162.65 169.594 162.604 168.179C162.592 167.879 162.51 167.373 162.534 166.96C162.557 166.63 162.639 166.33 162.755 166.103C163.058 165.545 163.805 165.318 164.435 165.587C165.041 165.835 165.309 166.465 165.053 167.002Z" fill="black"/>
<path fill-rule="evenodd" clip-rule="evenodd" d="M348.864 72.6634C348.934 72.5498 348.946 72.9319 348.981 73.0662C349.027 73.3347 349.062 73.6032 349.039 73.882C349.004 74.6255 348.887 75.4001 348.596 76.1023C347.651 78.3536 345.575 80.2022 343.009 80.9974C340.467 81.7822 337.516 81.8752 334.845 81.8132C329.317 81.679 323.788 80.6876 318.657 78.839C315.321 77.6411 311.717 75.8648 309.793 73.0352C308.79 71.5481 308.521 69.7408 308.976 68.0678C309.233 67.1074 310.201 66.1676 309.804 65.1556C309.023 63.1728 307.635 61.3449 306.644 59.4344C304.451 55.2519 302.725 50.7802 301.733 46.257C301.197 43.7888 300.812 41.0521 301.512 38.5736C302.037 36.6837 303.774 34.6493 306.212 35.5581C307.425 36.0125 308.358 36.8386 309.139 37.7474C309.233 37.861 310.306 39.2242 310.341 39.1622C310.714 38.7388 310.387 37.355 310.387 36.8593C310.387 34.7009 310.527 32.5322 310.714 30.3842C311.274 24.0227 312.743 15.2343 318.47 10.6904C319.951 9.51311 321.794 8.57335 323.858 8.61465C324.546 8.63531 325.888 9.25493 326.459 9.12068C326.914 9.00708 327.661 7.05526 327.975 6.68348C329.795 4.53545 332.734 4.94853 334.938 6.43563C336.676 7.61293 337.819 9.33755 338.391 11.1655C338.484 11.4546 338.717 13.5407 339.032 13.6233C339.289 13.6956 340.63 12.6216 340.887 12.4873C342.298 11.7438 343.779 11.2687 345.423 11.7231C347.919 12.4357 349.272 14.7386 349.786 16.866C349.879 17.2791 349.786 19.138 350.112 19.4065C350.334 19.5924 351.535 18.8178 351.792 18.7352C352.935 18.3634 354.451 18.3428 355.559 18.8178C357.845 19.8092 361.857 22.5769 361.647 29.1966C361.332 39.2965 356.865 58.9387 353.249 68.5532C351.967 72.0231 349.004 71.6926 348.864 72.6634Z" fill="white"/>
<path fill-rule="evenodd" clip-rule="evenodd" d="M309.151 36.0744C309.174 34.1536 309.303 32.2224 309.478 30.3016C310.061 23.6922 311.682 14.5837 317.642 9.87456C319.368 8.51138 321.526 7.46835 323.893 7.51998C324.325 7.53031 324.966 7.70587 325.596 7.88143C325.678 7.90209 325.806 7.93307 325.911 7.96405C326.004 7.77816 326.144 7.56129 326.214 7.39606C326.517 6.79708 326.821 6.22909 326.984 6.02255C329.258 3.32718 332.944 3.69895 335.708 5.56816C337.656 6.8797 338.974 8.81087 339.603 10.8866C339.638 10.9899 339.732 11.403 339.813 11.847C340.023 11.7025 340.198 11.5889 340.257 11.5682C341.983 10.6594 343.814 10.1327 345.808 10.6904C348.747 11.5166 350.415 14.1603 351.01 16.6595C351.057 16.8557 351.08 17.3204 351.103 17.8264C351.22 17.7748 351.313 17.7335 351.372 17.7128C352.818 17.2481 354.719 17.2378 356.118 17.8368C358.638 18.9211 363.14 21.947 362.906 29.2482C362.592 39.4204 358.09 59.2175 354.451 68.9147C353.669 70.9904 352.375 71.9302 351.267 72.4982C350.928 72.6634 350.509 72.8596 350.24 72.9939C350.287 73.2934 350.322 73.6032 350.299 73.913C350.252 74.7805 350.112 75.6583 349.774 76.4741C348.701 79.0352 346.345 81.142 343.429 82.0404C340.735 82.8666 337.644 82.9905 334.822 82.9182C329.142 82.784 323.462 81.7616 318.19 79.8614C314.609 78.5808 310.784 76.6393 308.731 73.6135C307.553 71.8785 307.227 69.7718 307.763 67.8097C307.891 67.3656 308.136 66.9112 308.37 66.4671C308.521 66.1573 308.754 65.8578 308.638 65.5377C307.868 63.5859 306.492 61.789 305.524 59.9094C303.284 55.6547 301.535 51.0797 300.52 46.4738C299.949 43.8508 299.564 40.9488 300.299 38.3154C301.01 35.8163 303.483 33.3481 306.702 34.5564C307.635 34.9075 308.44 35.4342 309.151 36.0744ZM349.692 73.4999C349.785 73.4276 349.879 73.3347 349.96 73.2004C349.879 73.314 349.785 73.407 349.692 73.4999ZM347.721 73.1178C347.628 72.9319 347.593 72.7254 347.616 72.5188C347.709 71.9199 348.164 71.4242 349.051 71.0214C349.867 70.6393 351.313 70.2159 352.06 68.2331C355.652 58.6908 360.084 39.2139 360.399 29.1966C360.585 23.2482 357.063 20.718 355.01 19.8402C354.206 19.4994 353.109 19.5407 352.27 19.7989C352.106 19.8815 351.115 20.4082 350.695 20.5115C350.03 20.687 349.552 20.4805 349.272 20.2636C349.086 20.1087 348.841 19.8092 348.747 19.3445C348.596 18.7249 348.642 17.465 348.561 17.1345C348.141 15.3686 347.126 13.4064 345.05 12.8178C343.779 12.4667 342.636 12.9004 341.54 13.4787C341.33 13.582 340.42 14.2946 339.918 14.5424C339.37 14.8109 338.904 14.7696 338.67 14.7077C338.402 14.6354 337.912 14.3772 337.679 13.7472C337.446 13.1483 337.271 11.7231 337.189 11.4856C336.699 9.87457 335.708 8.36681 334.192 7.33409C332.547 6.22909 330.343 5.76437 328.978 7.36508C328.733 7.65423 328.232 8.9348 327.8 9.49246C327.474 9.93653 327.066 10.1431 326.786 10.205C326.459 10.2876 325.993 10.2773 325.479 10.1741C324.92 10.0501 324.243 9.76097 323.823 9.75064C322.085 9.699 320.558 10.5458 319.298 11.5372C313.781 15.8953 312.498 24.3738 311.962 30.4978C311.775 32.6149 311.635 34.7526 311.624 36.88C311.624 37.2311 311.775 38.0469 311.74 38.6459C311.717 39.1623 311.554 39.5753 311.344 39.8542C311.157 40.071 310.317 40.732 309.419 39.9678C309.186 39.7716 308.218 38.553 308.125 38.4394C307.472 37.6855 306.725 36.9832 305.71 36.6011C304.847 36.281 304.148 36.6321 303.646 37.1588C303.203 37.6338 302.888 38.2535 302.713 38.8628C302.06 41.1864 302.445 43.7475 302.958 46.0608C303.914 50.5014 305.617 54.8904 307.763 58.9903C308.778 60.9215 310.177 62.7907 310.982 64.8148C311.239 65.4551 311.18 66.085 310.947 66.7047C310.726 67.252 310.329 67.789 310.177 68.3467C309.792 69.7408 310.014 71.2486 310.865 72.4775C312.638 75.1006 316.021 76.7116 319.111 77.827C324.103 79.6239 329.492 80.5946 334.868 80.7186C337.399 80.7805 340.175 80.6979 342.578 79.9543C344.794 79.2728 346.59 77.6617 347.406 75.7202C347.663 75.1213 347.744 74.4706 347.779 73.8304C347.791 73.6342 347.768 73.4483 347.733 73.2624C347.744 73.2107 347.733 73.1694 347.721 73.1178Z" fill="black"/>
<path fill-rule="evenodd" clip-rule="evenodd" d="M313.828 44.0161C314.108 43.8922 314.364 43.8096 314.516 43.7786C315.904 43.4791 317.443 43.3655 318.855 43.5307C325.363 44.3053 330.016 49.6444 330.215 55.2933C330.238 55.9026 329.701 56.419 329.013 56.4293C328.325 56.4499 327.742 55.9749 327.719 55.3656C327.544 50.7597 323.835 46.3603 318.528 45.7304C317.432 45.6065 316.219 45.6891 315.134 45.9266C315.134 45.9266 314.026 46.3707 313.56 46.4326C313.14 46.4843 312.778 46.4223 312.522 46.2984C312.347 46.2158 312.137 46.0815 311.962 45.844C311.833 45.6788 311.682 45.4103 311.53 45.0488C310.994 43.7063 310.189 40.4842 308.405 38.7699C307.938 38.3259 307.973 37.6236 308.475 37.2105C308.988 36.7974 309.781 36.8181 310.247 37.2725C311.425 38.3981 312.277 40.0608 312.883 41.5892C313.233 42.4257 313.606 43.4068 313.828 44.0161Z" fill="black"/>
<path fill-rule="evenodd" clip-rule="evenodd" d="M314.399 45.7718C313.851 46.1642 313.07 46.0919 312.638 45.6169C312.207 45.1418 312.277 44.4499 312.813 44.0678C313.058 43.8922 327.077 35.2484 350.497 47.7959C351.092 48.1057 351.278 48.7976 350.928 49.314C350.567 49.8406 349.797 50.0059 349.214 49.6961C327.532 38.0781 314.621 45.6065 314.399 45.7718Z" fill="black"/>
<path fill-rule="evenodd" clip-rule="evenodd" d="M325.573 9.25489C325.409 8.86246 325.514 8.38741 325.876 8.0776C326.378 7.65419 327.159 7.66451 327.637 8.09825C327.824 8.26348 328.022 8.5733 328.069 9.00704C328.104 9.48208 327.929 10.4219 327.917 10.649C327.789 12.5286 327.637 14.4081 327.509 16.2773C327.229 20.4495 326.914 24.6216 326.587 28.7938C326.378 31.5718 326.226 34.3704 325.748 37.1278C325.643 37.7267 325.001 38.1398 324.313 38.0469C323.637 37.9643 323.17 37.3963 323.263 36.787C323.73 34.1019 323.87 31.3549 324.092 28.6389C324.418 24.477 324.721 20.3049 325.001 16.1431C325.13 14.2739 325.281 12.3943 325.409 10.5251C325.433 10.3599 325.538 9.48208 325.573 9.25489Z" fill="black"/>
<path fill-rule="evenodd" clip-rule="evenodd" d="M337.714 12.8386C337.702 12.7973 337.702 12.7457 337.702 12.7044C337.679 12.0951 338.227 11.5787 338.915 11.5684C339.289 11.5684 339.988 11.6613 340.187 12.4668C340.233 12.6218 340.175 13.4376 340.163 13.4892C340.082 14.2328 340 14.9763 339.918 15.7302C339.685 17.5788 339.452 19.417 339.219 21.2759C338.775 25.004 338.274 28.732 337.737 32.4498C337.446 34.4946 337.259 36.5806 336.769 38.5944C336.629 39.1934 335.953 39.5755 335.288 39.4413C334.6 39.3173 334.18 38.7287 334.32 38.1297C334.798 36.1779 334.985 34.1641 335.265 32.1813C335.79 28.4739 336.291 24.7561 336.734 21.0487C336.956 19.1898 337.201 17.3516 337.422 15.503C337.516 14.7698 337.597 14.0366 337.667 13.3033C337.667 13.2517 337.702 12.9625 337.714 12.8386ZM338.064 13.4583C338.344 13.7164 338.659 13.7887 338.985 13.7784C338.624 13.7887 338.297 13.6545 338.064 13.4583Z" fill="black"/>
<path fill-rule="evenodd" clip-rule="evenodd" d="M349.179 18.7764C349.179 18.4357 349.354 18.1052 349.68 17.8883C350.124 17.5992 350.508 17.6405 350.742 17.6921C351.127 17.7747 351.453 17.9709 351.628 18.3737C351.663 18.477 351.721 18.6215 351.721 18.7868C351.721 18.8694 351.663 19.1379 351.628 19.2515L351.616 19.2825C351.581 19.4684 351.535 19.6646 351.5 19.8505C351.383 20.3668 351.278 20.8832 351.173 21.4099C350.812 23.1035 350.403 24.7868 350.03 26.4805C349.307 29.8058 348.561 33.1415 347.861 36.4668C347.499 38.2121 346.998 39.9677 346.811 41.7336C346.753 42.3532 346.146 42.7973 345.47 42.7457C344.77 42.694 344.269 42.1467 344.327 41.5477C344.514 39.7095 345.015 37.8816 345.4 36.064C346.111 32.7284 346.858 29.3927 347.593 26.0571C347.954 24.3737 348.362 22.6904 348.724 20.9968C348.841 20.4804 348.934 19.9537 349.051 19.4477C349.086 19.2515 349.144 19.0553 349.179 18.8487C349.156 18.8281 349.167 18.7971 349.179 18.7764ZM350.707 19.8505C350.847 19.8195 351.01 19.7679 351.185 19.6543C351.033 19.7472 350.882 19.8195 350.707 19.8505Z" fill="black"/>
<path fill-rule="evenodd" clip-rule="evenodd" d="M347.616 72.777C347.161 72.302 345.517 70.66 344.56 69.8958C340.163 66.3846 333.644 65.0833 327.894 64.6083C327.206 64.5567 326.692 64.0196 326.762 63.4103C326.832 62.801 327.439 62.3466 328.127 62.4086C334.378 62.925 341.458 64.4327 346.24 68.2641C347.394 69.1832 349.051 70.7013 349.692 71.5068C350.019 71.9199 350.147 72.271 350.17 72.4672C350.205 72.8493 350.077 73.1282 349.879 73.3347C349.715 73.5206 349.494 73.6652 349.202 73.7478C348.537 73.9027 347.838 73.5619 347.663 72.9836C347.639 72.901 347.628 72.839 347.616 72.777ZM348.083 71.8063C348.223 71.7133 348.363 71.641 348.537 71.6101C348.351 71.641 348.199 71.7133 348.083 71.8063Z" fill="black"/>
<path fill-rule="evenodd" clip-rule="evenodd" d="M319.741 62.1194C320.429 62.0678 321.047 62.5221 321.094 63.1314C321.152 63.7407 320.651 64.2778 319.951 64.3294C316.942 64.5566 313.081 64.6702 310.714 66.5187C310.201 66.9215 309.408 66.8802 308.953 66.4155C308.498 65.9611 308.545 65.2588 309.069 64.8561C311.822 62.7184 316.254 62.3879 319.741 62.1194Z" fill="black"/>
<path fill-rule="evenodd" clip-rule="evenodd" d="M335.16 76.8047C335.183 72.8184 331.544 69.5654 327.042 69.5447C322.54 69.5241 318.866 72.7461 318.855 76.7324C318.855 76.7324 318.178 120.963 261.635 136.95C257.355 138.158 254.976 142.227 256.352 146.027C257.717 149.817 262.312 151.924 266.604 150.705C335.323 131.28 335.16 76.8047 335.16 76.8047Z" fill="white"/>
<path fill-rule="evenodd" clip-rule="evenodd" d="M336.419 76.7942C336.419 77.5584 336.163 132.199 266.989 151.748C262.044 153.153 256.749 150.726 255.174 146.347C253.588 141.979 256.329 137.28 261.274 135.886C316.744 120.209 317.607 76.9491 317.618 76.7219C317.653 72.1263 321.887 68.4189 327.077 68.4395C332.244 68.4602 336.443 72.1986 336.419 76.7942ZM333.912 76.7942C333.935 73.4172 330.844 70.6599 327.042 70.6392C323.24 70.6289 320.114 73.3552 320.103 76.7322C320.103 76.7322 319.485 121.748 262.009 137.982C258.381 139.005 256.375 142.454 257.542 145.666C258.696 148.888 262.58 150.654 266.219 149.631C334.005 130.485 333.912 76.8045 333.912 76.7942Z" fill="black"/>
<path fill-rule="evenodd" clip-rule="evenodd" d="M194.876 161.063C195.377 161.404 195.517 162.045 195.167 162.53C195.144 162.561 195.144 162.571 195.12 162.602C194.922 162.84 194.631 162.984 194.327 163.036C194.362 163.036 194.386 163.026 194.421 163.015C194.327 163.036 194.234 163.046 194.129 163.046C193.499 163.057 192.963 162.664 192.881 162.127C192.881 162.127 192.951 161.508 192.998 161.435C193.219 161.043 193.581 160.847 194.047 160.836C194.164 160.826 194.876 161.063 194.876 161.063ZM195.12 162.602C194.945 162.829 194.712 162.964 194.421 163.015C194.712 162.953 194.945 162.798 195.12 162.602Z" fill="black"/>
<path fill-rule="evenodd" clip-rule="evenodd" d="M193.732 165.473C193.709 165.442 193.686 165.422 193.663 165.391C193.732 165.473 193.791 165.556 193.826 165.649C193.861 165.711 193.884 165.773 193.896 165.835C193.884 165.814 193.884 165.783 193.872 165.762C194.012 166.186 193.861 166.651 193.441 166.94C192.904 167.322 192.111 167.239 191.691 166.754C191.54 166.589 191.493 166.506 191.447 166.279C191.307 165.68 191.738 165.091 192.415 164.978C192.951 164.885 193.464 165.091 193.732 165.473ZM193.732 165.473C193.814 165.566 193.849 165.639 193.884 165.762C193.872 165.732 193.849 165.68 193.826 165.649C193.814 165.587 193.767 165.525 193.732 165.473Z" fill="black"/>
<path fill-rule="evenodd" clip-rule="evenodd" d="M198.631 164.988C198.689 164.957 198.748 164.926 198.818 164.895C199.331 164.668 199.972 164.781 200.334 165.194C200.765 165.68 200.672 166.382 200.136 166.754C200.112 166.764 200.089 166.785 200.077 166.795C200.007 166.826 199.949 166.867 199.891 166.888C199.377 167.115 198.748 167.002 198.363 166.589C197.943 166.103 198.025 165.411 198.561 165.029C198.584 165.019 198.608 165.009 198.631 164.988Z" fill="black"/>
<path fill-rule="evenodd" clip-rule="evenodd" d="M158.218 155.322C158.23 155.322 158.242 155.311 158.253 155.311C158.265 155.311 158.265 155.311 158.265 155.301C158.895 155.105 159.594 155.373 159.839 155.921C160.108 156.489 159.793 157.139 159.151 157.366C159.14 157.377 159.116 157.377 159.105 157.387C158.556 157.625 157.892 157.47 157.542 157.015C157.145 156.52 157.285 155.828 157.857 155.487C157.95 155.425 158.125 155.353 158.218 155.322Z" fill="black"/>
<path fill-rule="evenodd" clip-rule="evenodd" d="M164.225 158.131C164.271 158.141 164.318 158.172 164.365 158.193C164.936 158.523 165.099 159.215 164.726 159.721C164.376 160.196 163.677 160.351 163.117 160.093C163.058 160.072 163.023 160.062 162.977 160.041C162.394 159.721 162.219 159.029 162.58 158.513C162.918 158.017 163.642 157.852 164.225 158.131Z" fill="black"/>
<path fill-rule="evenodd" clip-rule="evenodd" d="M158.673 160.558C158.685 160.558 158.72 160.568 158.743 160.568C158.755 160.568 158.766 160.568 158.778 160.568C159.455 160.671 159.909 161.25 159.804 161.849C159.688 162.427 159.081 162.83 158.428 162.768C158.428 162.768 158.393 162.757 158.358 162.757C158.347 162.757 158.347 162.757 158.335 162.757C157.647 162.654 157.192 162.076 157.309 161.477C157.413 160.898 158.032 160.496 158.673 160.558Z" fill="black"/>
</svg>
