<svg width="108" height="111" viewBox="0 0 108 111" fill="none" xmlns="http://www.w3.org/2000/svg">
<path d="M46.6904 20.5513C46.6904 20.5513 46.7723 53.7658 23.7657 67.6299C50.5919 66.3996 68.9344 94.1257 68.9344 94.1257C68.9344 94.1257 68.8488 60.9123 91.8542 47.0445C65.0202 48.2488 46.6904 20.5513 46.6904 20.5513Z" fill="black"/>
<mask id="mask0_9_215" style="mask-type:luminance" maskUnits="userSpaceOnUse" x="6" y="5" width="102" height="105">
<path d="M6.90125 28.2869L83.3647 5.16949L107.859 86.1862L31.3953 109.304L6.90125 28.2869Z" fill="white"/>
</mask>
<g mask="url(#mask0_9_215)">
<path d="M69.939 97.4482L68.0278 94.6426C67.8515 94.3681 49.6876 67.4339 23.7591 68.6275L19.7604 68.7802L23.1739 66.6919C45.4195 53.3168 45.6132 20.8123 45.6134 20.5046L45.6512 17.1138L47.5576 19.9168C47.7339 20.1914 65.8978 47.1255 91.8274 45.9356L95.8261 45.783L92.4126 47.8713C70.1658 61.2426 69.9722 93.7472 69.9719 94.0548L69.939 97.4482ZM27.1146 66.5891C47.784 67.4712 63.0757 84.7713 68.0477 91.1925C68.6345 83.1231 71.7802 60.2487 88.4898 48.0334C67.8193 47.1476 52.5242 29.8363 47.5594 23.4252C47.0115 31.503 43.832 54.3998 27.1146 66.5891Z" fill="black"/>
</g>
<path d="M39.5226 16.7165C39.5226 16.7165 39.6262 49.9891 16.596 63.7754C43.4222 62.5451 61.761 90.2722 61.761 90.2722C61.761 90.2722 61.6754 57.0589 84.6846 43.19C57.8703 44.4733 39.5226 16.7165 39.5226 16.7165Z" fill="white"/>
<mask id="mask1_9_215" style="mask-type:luminance" maskUnits="userSpaceOnUse" x="0" y="1" width="102" height="105">
<path d="M0.450256 24.636L76.7204 1.577L101.232 82.653L24.9622 105.712L0.450256 24.636Z" fill="white"/>
</mask>
<g mask="url(#mask1_9_215)">
<path d="M62.7733 93.6208L60.867 90.8177C60.6907 90.5432 42.5268 63.609 16.5972 64.799L12.6446 64.97L16.0618 62.8806C38.3138 49.54 38.5131 17.0541 38.5115 16.7267L38.5444 13.3334L40.4519 16.1401C40.6282 16.4146 58.7921 43.3488 84.7206 42.1552L88.7193 42.0025L85.3058 44.0908C63.059 57.4622 62.8665 89.9704 62.8651 90.2744L62.7733 93.6208ZM19.9527 62.7606C40.6183 63.6437 55.9149 80.9465 60.8831 87.3687C61.4648 79.309 64.6093 56.3905 81.3242 44.2059C60.6585 43.3228 45.3668 26.0631 40.4004 19.62C39.8281 27.7376 36.6675 50.576 19.9527 62.7606Z" fill="black"/>
</g>
</svg>
